<?xml version="1.0" encoding="UTF-8"?>
<svg id="Layer_2" data-name="Layer 2" xmlns="http://www.w3.org/2000/svg" viewBox="0 0 41.35 35">
  <defs>
    <style>
      .cls-1 {
        fill: #fff;
      }
    </style>
  </defs>
  <g id="Layer_1-2" data-name="Layer 1">
    <g>
      <path class="cls-1" d="m35.9,6.19c-.13-.08-.29-.13-.39-.23-1.09-1.08-2.17-2.16-3.25-3.25-.6-.61-.63-1.51-.1-2.14.52-.62,1.43-.75,2.09-.3.14.09.26.21.37.33,2.05,2.05,4.1,4.1,6.14,6.15.75.75.75,1.67.01,2.41-2.06,2.07-4.13,4.14-6.2,6.21-.71.71-1.67.73-2.32.08-.65-.65-.62-1.62.08-2.32,1.07-1.08,2.14-2.15,3.22-3.22.09-.09.18-.19.32-.35-1.12,0-2.16-.02-3.21,0-.88.02-1.77.01-2.64.15-3.3.51-5.86,2.22-7.7,4.99-1.64,2.47-3.28,4.94-4.93,7.4-2.37,3.55-5.66,5.69-9.87,6.38-.66.11-1.34.15-2.02.16-1.27.03-2.54.02-3.81,0C.71,28.63,0,27.95,0,27.05c0-.92.72-1.6,1.74-1.6,1.14,0,2.29,0,3.43,0,4.1-.02,7.3-1.75,9.59-5.14,1.65-2.45,3.27-4.91,4.91-7.36,2.39-3.6,5.72-5.75,9.98-6.42.72-.11,1.46-.13,2.18-.14,1.19-.02,2.37,0,3.56,0,.13,0,.26-.01.39-.02.04-.05.07-.1.11-.16Z"/>
      <path class="cls-1" d="m35.77,28.64c-.31,0-.63,0-.94,0-1.68-.04-3.38.05-5.04-.16-4.12-.53-7.38-2.58-9.8-5.97-.07-.1-.11-.3-.05-.39.57-.89,1.17-1.77,1.79-2.7.22.33.42.62.62.91,1.73,2.6,4.12,4.26,7.18,4.89.71.15,1.45.2,2.18.22,1.27.03,2.54.01,3.81.01.09,0,.18,0,.35-.02-.16-.17-.26-.29-.37-.4-1.06-1.06-2.13-2.13-3.19-3.19-.47-.47-.63-1.04-.41-1.67.21-.61.66-.97,1.3-1.07.49-.07.94.08,1.29.42,2.14,2.13,4.28,4.26,6.4,6.41.62.63.62,1.57,0,2.2-2.12,2.15-4.26,4.29-6.41,6.41-.64.63-1.62.58-2.23-.04-.61-.62-.61-1.58.03-2.23,1.06-1.08,2.14-2.15,3.22-3.22.11-.11.24-.18.36-.27-.03-.05-.05-.09-.08-.14Z"/>
      <path class="cls-1" d="m17.26,12.73c-.62.93-1.23,1.85-1.89,2.84-.22-.33-.42-.62-.62-.91-1.31-1.99-3.06-3.45-5.28-4.34-1.23-.49-2.5-.76-3.82-.78-1.36-.02-2.73,0-4.09-.01-.79,0-1.41-.58-1.53-1.36-.11-.75.32-1.48,1.05-1.72.18-.06.38-.09.57-.09,1.52,0,3.04-.07,4.55.03,4.64.3,8.29,2.4,10.99,6.17.03.04.05.1.08.16Z"/>
    </g>
  </g>
</svg>