<?xml version="1.0" encoding="UTF-8"?>
<svg id="Layer_2" data-name="Layer 2" xmlns="http://www.w3.org/2000/svg" viewBox="0 0 41.35 35">
  <g id="Layer_1-2" data-name="Layer 1">
    <g>
      <path d="m30.04,9.69c.87-.13,1.76-.13,2.64-.15,1.04-.02,2.08,0,3.21,0-.15.16-.23.26-.32.35-1.07,1.07-2.15,2.14-3.22,3.22-.7.71-.73,1.67-.08,2.32.65.65,1.62.63,2.32-.08,2.07-2.07,4.14-4.13,6.2-6.21.74-.74.74-1.66-.01-2.41-2.04-2.05-4.09-4.1-6.14-6.15-.12-.12-.24-.23-.37-.33-.67-.45-1.57-.32-2.09.3-.53.63-.5,1.53.1,2.14,1.07,1.09,2.16,2.17,3.25,3.25.1.1.26.16.39.23-.04.05-.07.1-.11.16-.13,0-.26.02-.39.02-1.19,0-2.37-.02-3.56,0-.73.01-1.47.03-2.18.14-4.26.68-7.59,2.83-9.98,6.42-1.63,2.46-3.26,4.92-4.91,7.36-2.29,3.4-5.49,5.12-9.59,5.14-1.14,0-2.29,0-3.43,0C.72,25.45,0,26.12,0,27.05c0,.91.71,1.58,1.71,1.59,1.27.01,2.54.02,3.81,0,.67-.01,1.35-.05,2.02-.16,4.21-.7,7.5-2.83,9.87-6.38,1.65-2.47,3.29-4.93,4.93-7.4,1.85-2.77,4.4-4.48,7.7-4.99Z"/>
      <path d="m40.88,25.94c-2.12-2.15-4.26-4.28-6.4-6.41-.35-.35-.79-.5-1.29-.42-.64.09-1.1.45-1.3,1.07-.21.63-.05,1.2.41,1.67,1.06,1.07,2.12,2.13,3.19,3.19.11.11.22.23.37.4-.17,0-.26.02-.35.02-1.27,0-2.54.02-3.81-.01-.73-.02-1.46-.07-2.18-.22-3.07-.63-5.45-2.29-7.18-4.89-.2-.29-.39-.58-.62-.91-.62.93-1.22,1.81-1.79,2.7-.05.08-.01.29.06.39,2.42,3.38,5.68,5.43,9.8,5.97,1.66.21,3.36.12,5.04.16.31,0,.63,0,.94,0,.03.05.05.09.08.14-.12.09-.26.17-.36.27-1.08,1.07-2.15,2.14-3.22,3.22-.64.65-.63,1.61-.03,2.23.61.63,1.59.67,2.23.04,2.15-2.12,4.28-4.26,6.41-6.41.62-.63.62-1.57,0-2.2Z"/>
      <path d="m1.55,9.54c1.36.02,2.73,0,4.09.01,1.32.02,2.6.28,3.82.78,2.22.89,3.97,2.35,5.28,4.34.19.29.39.58.62.91.66-.99,1.28-1.91,1.89-2.84-.03-.06-.05-.11-.08-.16-2.7-3.78-6.35-5.87-10.99-6.17-1.51-.1-3.03-.03-4.55-.03-.19,0-.39.03-.57.09-.73.24-1.16.97-1.05,1.72.12.78.74,1.35,1.53,1.36Z"/>
    </g>
  </g>
</svg>