<?xml version="1.0" encoding="UTF-8"?>
<svg id="Layer_2" data-name="Layer 2" xmlns="http://www.w3.org/2000/svg" viewBox="0 0 35 35.03">
  <defs>
    <style>
      .cls-1 {
        fill: #fff;
      }
    </style>
  </defs>
  <g id="Layer_1-2" data-name="Layer 1">
    <path class="cls-1" d="m8.33,7c.73,0,1.41,0,2.09,0,1.01,0,1.78.73,1.81,1.69.03.98-.7,1.8-1.73,1.81-2.35.03-4.71.03-7.06,0-1.03-.01-1.72-.78-1.72-1.82,0-2.29,0-4.57,0-6.86C1.74.78,2.46.02,3.45,0c1.01-.02,1.77.73,1.79,1.79.02.92,0,1.83,0,2.75,0,.13,0,.26,0,.5.29-.27.5-.47.72-.66C9.64,1.2,13.91-.26,18.75.04c7.96.5,14.68,6.6,16,14.48,1.59,9.5-4.57,18.39-14.02,20.21C11.38,36.52,2.16,30.31.34,20.97c-.21-1.09-.28-2.22-.34-3.34-.06-1.07.69-1.85,1.69-1.86,1.02-.02,1.76.71,1.78,1.79.06,3.21.98,6.14,3.03,8.62,3.66,4.44,8.4,6.23,14.01,4.99,5.62-1.24,9.25-4.85,10.6-10.46,1.89-7.8-3.15-15.48-11.04-16.95-4.22-.79-8.06.23-11.43,2.91-.09.07-.17.14-.25.21-.02.02-.02.04-.06.12Z"/>
  </g>
</svg>