<?xml version="1.0" encoding="UTF-8"?>
<svg id="Layer_2" data-name="Layer 2" xmlns="http://www.w3.org/2000/svg" viewBox="0 0 35.85 34">
  <g id="Layer_1-2" data-name="Layer 1">
    <g>
      <path d="m14.93,24.19l1.86,1.86c.8.8,1.49.8,2.29,0l8.61-8.6c.16-.16.32-.31.46-.48.45-.52.45-1.27,0-1.79-.25-.28-.58-.45-.93-.46-.39,0-.78.15-1.09.47-1.26,1.26-2.51,2.52-3.77,3.78l-1.84,1.85c-.07.07-.15.14-.25.23l-1,.92V1.99c0-.24,0-.48,0-.72-.03-.65-.52-1.19-1.13-1.25-.72-.08-1.31.3-1.48.95-.05.2-.05.44-.05.68v20.32s-.74-.59-.74-.59l-.68-.7c-.29-.31-.59-.61-.89-.91l-.14-.14c-1.46-1.47-2.93-2.95-4.4-4.41-.33-.33-.7-.49-1.07-.49-.31,0-.61.12-.88.36-.28.25-.43.58-.44.93-.01.39.16.78.47,1.1,2.36,2.36,4.72,4.72,7.08,7.08Z"/>
      <path d="m34.96,31.4c-.26-.08-.57-.09-.79-.09-10.83,0-21.65,0-32.47,0h-.11c-.09,0-.18,0-.27,0-.63.06-1.02.34-1.22.88-.16.42-.11.84.13,1.19.27.39.72.61,1.25.61h12.06s20.62,0,20.62,0h.12c.11,0,.21,0,.32,0,.61-.04,1.15-.53,1.23-1.1.1-.69-.26-1.3-.87-1.49Z"/>
    </g>
  </g>
</svg>