<?xml version="1.0" encoding="utf-8"?>
<!-- Generator: Adobe Illustrator 27.2.0, SVG Export Plug-In . SVG Version: 6.00 Build 0)  -->
<svg version="1.1" xmlns="http://www.w3.org/2000/svg" xmlns:xlink="http://www.w3.org/1999/xlink" x="0px" y="0px" width="1080px"
	 height="1080px" viewBox="0 0 1080 1080" style="enable-background:new 0 0 1080 1080;" xml:space="preserve">
<g id="B">
	<path id="B_00000038404215920176807810000006095507119755527844_" d="M587.51,163.9l16.4,26.95l2.4,3.95l4.3-1.7l39.72-15.73
		l37.15,93.89l0.68,1.66l1.49,0.95c0.96,0.62,14.24,9.67,19.5,13.89l1.67,1.34l2.14-0.15l105.69-7.42l5.27,75.17l-51.23,41.12
		l-2.16,1.74l0.12,2.77c0.16,3.77,0.18,7.65,0.05,11.53l-0.09,2.88l2.31,1.71l15.27,11.29l6.9,5.1l1.73-8.4l4.55-22.09l66.02,13.61
		l-11.87,57.61l-0.71,3.43l2.82,2.08l60.75,44.92l-47.77,64.67l-20.19-14.93l-22.46-16.61l14.52,23.87l53.03,87.19L859,692.43
		l-3.95,2.4l1.7,4.3l11.61,29.34l-14.14,5.6l-3.73,1.48l0.28,4.01l1.2,17.09l-50.07,3.52l-3.63,0.25l-1.17,3.45l-8.76,25.72
		l-48.72-15.25l-2.53-0.79l-2.19,1.5c-15.29,10.43-44.31,27.2-71.89,39.39l-8.54,3.77l7.45,5.62l23.41,17.67l-47.63,64.47
		l-78.72-58.21l-18.96-14.02l10.83,20.95l9.98,19.3L492.1,915.8l-16.4-26.95l-2.4-3.95l-4.3,1.7l-39.72,15.73l-36.17-91.43
		l-0.7-1.77l-1.64-0.96c-1.68-0.98-18.22-11.74-23.77-16.08l-1.66-1.3l-2.1,0.15l-102.24,7.18l-5.31-75.76l42.18-33.84l9.09-7.3
		l-11.42-2.35l-83.27-17.17l11.87-57.59l0.71-3.43l-2.82-2.08l-60.76-44.92l47.59-64.43l20.75,15.34l22.46,16.61l-14.52-23.87
		l-53.43-87.83l36.49-22.22l3.95-2.4l-1.7-4.3l-11.61-29.34l14.17-5.61l3.07-1.22l0.36-3.28l2.28-20.77l47.29-0.89l4.38-0.08
		l0.88-4.29l2.78-13.49l50.5,8.59l2.77,0.47l2-1.97c0.03-0.03,3.15-3.09,10.7-9.54c21.4-18.3,36.48-27.08,58.46-37.76l7.98-3.88
		l-7.04-5.4l-17.73-13.61l47.83-64.74l82.01,60.64L546.41,251l-14.52-23.87l-13.03-21.42L587.51,163.9 M589.35,156.37l-78.02,47.5
		l15.88,26.11l-86.42-63.9l-54.29,73.49l22,16.89c-22.44,10.91-37.96,19.99-59.63,38.53c-7.85,6.71-10.98,9.8-10.98,9.8l-55.72-9.48
		l-3.85,18.68l-52.11,0.99l-2.81,25.57l-19.26,7.63l13.62,34.44l-41.17,25.07l56.28,92.51l-25.16-18.6l-54.11,73.25l65.17,48.18
		l-12.97,62.96l88.63,18.28l-44.42,35.64l5.9,84.09l107.71-7.56c5.8,4.53,22.39,15.34,24.39,16.5l38.19,96.53l44.82-17.75
		l19.25,31.64l77.77-47.35l-12.33-23.84l83.13,61.47l54.11-73.25l-27.74-20.94c26.51-11.71,55.87-28.35,72.76-39.87l53.82,16.85
		l10.48-30.79l55.54-3.9l-1.58-22.56l19.24-7.62l-13.62-34.44l41.18-25.07l-55.88-91.87l24.6,18.19l54.29-73.49l-65.16-48.18
		l12.98-62.98l-76.75-15.83l-5.66,27.47l-15.27-11.29c0.13-4.02,0.11-8-0.05-11.94l53.47-42.92l-5.86-83.51l-111.16,7.8
		c-5.47-4.39-19.12-13.69-19.99-14.25l-39.16-98.99l-44.82,17.75L589.35,156.37L589.35,156.37z"/>
</g>
<g id="G">
	<path id="G_00000134227326091501490650000010935242263762940072_" d="M889.8,470.05l-40.14,39.37
		c-2.44-13.83-9.03-49.48-9.78-52.67c-8.51-36.24-18.91-62.77-33.71-86.03c-9.72-15.27-34.11-42.82-38.3-47.53l-9.68-108.46
		l-14.56,1.3l4.23-28.81l-100.47,20.33l-4.68,34.82c-28.54-10.25-50.66-14.45-80.37-15.39c-2.66-0.08-8.2,0.05-12.66,0.19
		l36.53-39.33L521.83,128L413.52,253.53l-41.85,18.68l-16.48-21.46l-87.56,7.83l2.26,25.35l-58.46,11.83l54.29,89.6
		c-3.9,6.83-15.73,29.61-19.69,39.74L128,552.2l80.24,74.59l19.53-9.04l-42.36,82.68l86.15,44.18l12.68-24.75
		c8.37,11.74,17.61,22.72,27.51,32.71l10.07,112.73l95.27-8.51l-2.81-29.95c20.34,9.75,44.68,19.9,73.33,24.62l-9.76,25.96
		L558.09,952l38.04-40.96l20.48,10.5l87.58-131.18l19.66,39l90.08-7.85l-19.98-113.58c10.27-8.17,19.2-17.43,24.64-25.57
		c4.26-6.39,8.73-16.38,11.78-23.52L952,527.87L889.8,470.05z M826.03,655.45l-0.33,0.35l-0.19,0.44
		c-2.97,6.96-7.39,16.93-11.49,23.07c-5.35,8.02-14.37,17.25-24.75,25.31l-1.3,1.01l19.52,110.93l-80.42,7.01l-22.22-44.07
		l-90.08,134.93l-19.82-10.17l-37.13,39.98l-73.54-68.36l10.85-28.85l-3.36-0.5c-30.98-4.58-57.03-15.85-78.33-26.21
		c-0.1-0.06-0.23-0.15-0.37-0.24c-0.28-0.19-0.55-0.36-0.68-0.43l-4.5-2.42l3.24,34.56l-84.33,7.54l-9.76-109.24l-0.7-0.7
		c-10.98-10.99-21.14-23.23-30.2-36.39l-2.6-3.78l-14.34,28l-76.39-39.17l47.12-91.96l-30.63,14.18l-73.53-68.35l114.67-123.47
		l0.36-0.39l0.19-0.5c3.91-10.26,17.89-36.99,20.28-40.75l0.91-1.44l-51.98-85.78l55.62-11.25l-2.21-24.78l79.1-7.07l18.34,23.88
		l45.78-22.25l105.46-122.22l56.19,52.23l-41.8,45.01l6.63-0.26c0.14-0.01,14.31-0.56,18.88-0.41c30.16,0.95,52.34,5.35,81.86,16.22
		l3.21,1.18l5.07-37.71l89-18.01l-4.11,27.97l16.02-1.43l9.36,104.82l0.62,0.68c0.27,0.3,28.17,31.47,38.36,47.48
		c14.46,22.71,24.63,48.73,33,84.34c0.86,3.67,10.25,54.59,10.57,57.35l0.62,5.61l44.18-43.33l54.35,50.52L826.03,655.45z"/>
</g>
<g id="R">
	<path id="R_00000129180160132363610030000002409287983716078779_" d="M585.58,141.87l43.95,56.2l-48.02,37.59l-11.01,8.62
		l13.93,1.17c6.8,0.57,27.48,3.93,37.89,7.03c16.34,4.87,29.53,10.65,41.5,18.17l2.57,1.61l2.73-1.32l56.44-27.21l6.05,12.47
		l1.84,3.8l4.15-0.82l47.26-9.3l9.37,47.68l0.66,3.37l3.32,0.88l47.66,12.62l-16.34,61.79l-1.34,5.06l4.99,1.57l60.93,19.24
		l-21.64,68.59l-27.24,9.21l-6.6,2.23l3.72,5.89l32.93,52.21l3.24,5.13l4.78-3.74l10.59-8.29l43.58,58.25L789.99,717.26l-0.53,0.45
		l-0.4,0.57c-12.61,17.91-26.9,30.83-42.92,44.69l-7.43,6.42l9.36,2.96l26.57,8.39l-23.84,75.55l-39.04-12.33l-5.48-1.73l-1.47,5.56
		l-10.48,39.63l-73.83-19.54l-2.84-0.75l-2.2,1.95l-49.61,43.99l-12.72-14.35l-3.42-3.86l-4.06,3.18l-51.23,40.1l-58.89-75.29
		l13.38-20.62l3.77-5.81l-6.51-2.34c-14.1-5.07-27.88-12.4-39.68-18.87l-2.4-1.32l-2.5,1.13l-47.17,21.4l-32.89-66.11l-5.15-10.34
		l-4.76,10.53l-6.59,14.58l-73.37-19.42l18.75-61.69l1.58-5.19l-5.17-1.63l-60.96-19.25l22.67-71.85l23.67-7.33l6.1-1.89l-2.78-5.74
		l-13.6-28.05l-2-4.13l-4.42,1.25l-13.69,3.87l-59.03-75.48l71.2-55.74l2.65-2.07l-0.65-3.3l-12.41-63.16l101.75-20.01l1.84-0.36
		l1.23-1.42c1.55-1.79,3.02-3.49,4.42-5.12c5.71-6.64,10.21-11.88,15.45-16.65l5.31-4.84l-6.06-3.85l-21.83-13.86l23.48-74.41
		l39.08,12.34l5.48,1.73l1.47-5.56l10.47-39.6l73.38,19.43l5.57,15.39l2.57,7.12l5.96-4.66L585.58,141.87 M586.52,134.17
		l-116.75,91.4l-6.54-18.09l-81.46-21.56l-11.87,44.9l-44.31-13.99l-26.4,83.67l25.39,16.12c-6.82,6.21-12.41,13.13-20.32,22.23
		l-107.13,21.07l13.47,68.54l-75.52,59.12l64.68,82.7l17.23-4.87l13.6,28.05l-26.42,8.18l-25.18,79.82l66.19,20.9l-20.4,67.13
		l83.35,22.06l8.5-18.81l35.24,70.85L403.85,820c13.57,7.44,26.69,14.27,40.46,19.22l-15.51,23.9l64.68,82.7l55.55-43.48
		l16.35,18.46l53.71-47.63l79.13,20.95l11.88-44.94l44.27,13.98l27.14-86.01l-31.79-10.04c16.15-13.97,30.88-27.3,43.81-45.68
		l151.38-129l-50.02-66.85l-15,11.74l-32.93-52.21l29.88-10.1l24.13-76.47l-66.16-20.89l17.75-67.1l-52.96-14.02l-10.43-53.06
		l-52.64,10.35l-8.43-17.39l-61.36,29.58c-12.48-7.85-26.18-13.81-42.85-18.78c-10.52-3.14-31.48-6.61-39-7.24l52.33-40.97
		L586.52,134.17L586.52,134.17z"/>
</g>
</svg>
